:SAMPLES-PER-SECOND 30
:FULLY-SPECIFIED
:DEGREES
163
root  -55.2665 35.0704 -28.081 -166.079 41.0097 -172.46
RightUpLeg  -15.779 -17.2581 -2.28233
RightLeg  24.3307 -3.79725 -1.43386
RightFoot  13.2123 0.152952 -0.763413
RightToes  -34.2383 -0.174169 -0.280318
Spine  -1.19349 -0.370256 -4.83728
Spine1  -2.40825 -0.807122 -8.80574
HEad  -78.5614 -48.0839 19.8702
LeftShoulder1  -1.94126e-019 -3.10601e-018 -2.51263e-017
LeftArm  -28.7542 21.5253 -73.2787
LeftForeArm  27.392 -7.62356 -1.33457
LeftHand  -0.344935 2.62797 14.2558
RightShoulder  -4.96962e-017 0 -2.36833e-017
RightArm  -41.4928 -19.8795 74.5472
RightForeArm  44.0043 32.5501 4.72106
RightHand  -0.00637222 2.00502 -0.271982
LeftUpLeg  -8.12207 12.5962 2.39314
LeftLeg  12.0193 22.7992 3.24872
LeftFoot  -1.91185 -0.0136041 -0.653736
LeftToes  -7.25911 1.46665e-006 1.03344e-007
164
root  -55.1854 35.0347 -28.1604 -165.983 41.8088 -172.487
RightUpLeg  -15.7644 -18.037 -1.77519
RightLeg  21.3325 -2.84765 -0.908112
RightFoot  13.318 0.124931 -0.518912
RightToes  -34.8192 -0.178476 -0.286908
Spine  -1.30422 -0.278898 -4.78807
Spine1  -2.62346 -0.618747 -8.67083
HEad  -78.5281 -47.9291 19.66
LeftShoulder1  -1.94126e-019 -3.10601e-018 -2.51263e-017
LeftArm  -29.3693 22.911 -71.9844
LeftForeArm  26.544 -6.81382 -1.19087
LeftHand  -0.356862 1.96107 11.9385
RightShoulder  -4.96962e-017 0 -2.36833e-017
RightArm  -43.9667 -18.692 71.8261
RightForeArm  41.1398 37.1957 6.03924
RightHand  -0.0685644 1.29633 -1.31737
LeftUpLeg  -7.97514 12.8813 2.27286
LeftLeg  12.2028 23.2668 3.3854
LeftFoot  -2.13381 -0.017133 -0.75839
LeftToes  -7.43727 1.46665e-006 1.03344e-007
165
root  -55.0754 34.9912 -28.2187 -165.983 42.4673 -172.735
RightUpLeg  -15.7537 -18.4553 -1.28461
RightLeg  17.9402 -1.4212 -0.362084
RightFoot  13.5182 0.0845456 -0.170667
RightToes  -36.0284 -0.187559 -0.291606
Spine  -1.4259 -0.177212 -4.78872
Spine1  -2.8589 -0.409786 -8.63297
HEad  -78.6186 -47.7287 19.5637
LeftShoulder1  -1.94126e-019 -3.10601e-018 -2.51263e-017
LeftArm  -28.6108 24.3073 -70.1469
LeftForeArm  26.8326 -6.7842 -1.18529
LeftHand  -0.36341 1.75942 11.505
RightShoulder  -4.96962e-017 0 -2.36833e-017
RightArm  -45.592 -17.4913 68.8538
RightForeArm  39.3798 41.5149 7.37609
RightHand  -0.167586 0.418699 -3.41266
LeftUpLeg  -8.00334 13.1258 2.05707
LeftLeg  12.5979 23.5816 3.58964
LeftFoot  -2.37706 -0.0213819 -0.869011
LeftToes  -7.61388 1.46665e-006 1.03344e-007
166
root  -54.9289 34.951 -28.2632 -165.953 43.091 -172.969
RightUpLeg  -15.8089 -18.3973 -0.696643
RightLeg  14.8077 0.430183 0.0846251
RightFoot  13.1812 0.0299922 0.272364
RightToes  -34.066 -0.172899 -0.279209
Spine  -1.56033 -0.00632506 -4.77949
Spine1  -3.12199 -0.0654989 -8.57252
HEad  -78.8478 -47.694 19.6944
LeftShoulder1  -1.94126e-019 -3.10601e-018 -2.51263e-017
LeftArm  -27.3688 25.5733 -68.0163
LeftForeArm  27.8885 -7.28404 -1.2729
LeftHand  -0.379573 1.33711 10.8113
RightShoulder  -4.96962e-017 0 -2.36833e-017
RightArm  -46.8201 -16.443 65.756
RightForeArm  37.7384 45.2977 8.71819
RightHand  -0.232816 -0.547016 -5.5542
LeftUpLeg  -7.95117 13.5164 1.92184
LeftLeg  12.7889 23.7517 3.69252
LeftFoot  -2.50074 -0.0236223 -0.920669
LeftToes  -8.05587 1.46665e-006 1.03344e-007
167
root  -54.7395 34.9209 -28.2806 -165.828 43.5738 -173.109
RightUpLeg  -15.8081 -17.9578 0.000423886
RightLeg  12.2479 0.999465 0.151178
RightFoot  13.2973 0.0138112 0.410189
RightToes  -30.9051 -0.150203 -0.258207
Spine  -1.6944 0.190768 -4.74926
Spine1  -3.38783 0.329473 -8.47404
HEad  -79.0833 -47.8202 19.9408
LeftShoulder1  -1.94126e-019 -3.10601e-018 -2.51263e-017
LeftArm  -25.8582 26.53 -65.6793
LeftForeArm  28.7671 -8.10417 -1.41813
LeftHand  -0.385269 1.09918 10.3893
RightShoulder  -4.96962e-017 0 -2.36833e-017
RightArm  -47.8533 -15.7138 62.8985
RightForeArm  36.705 48.741 10.083
RightHand  -0.246378 -1.57536 -7.33277
LeftUpLeg  -7.87029 13.803 1.95296
LeftLeg  12.8505 23.8804 3.73678
LeftFoot  -2.56019 -0.0246831 -0.942999
LeftToes  -8.32965 1.46665e-006 1.03344e-007
168
root  -54.5061 34.8985 -28.3001 -165.919 43.7077 -173.37
RightUpLeg  -15.8153 -19.4313 0.797423
RightLeg  11.2864 -0.677609 -0.0895728
RightFoot  13.484 0.0597299 0.0325746
RightToes  -30.5279 -0.147573 -0.255618
Spine  -1.78313 0.296199 -4.71968
Spine1  -3.56103 0.5425 -8.38113
HEad  -79.038 -47.5491 19.9062
LeftShoulder1  -1.94126e-019 -3.10601e-018 -2.51263e-017
LeftArm  -24.6281 27.0274 -63.3142
LeftForeArm  29.7576 -8.73577 -1.52966
LeftHand  -0.399712 0.96487 10.468
RightShoulder  -4.96962e-017 0 -2.36833e-017
RightArm  -48.407 -15.1497 60.4476
RightForeArm  36.7373 51.6854 11.3492
RightHand  -0.232969 -2.43694 -8.81647
LeftUpLeg  -7.60349 13.9378 2.05107
LeftLeg  12.7594 23.847 3.69425
LeftFoot  -2.38792 -0.0211642 -0.853879
LeftToes  -9.13104 1.46665e-006 1.03344e-007
169
root  -54.2282 34.8813 -28.3038 -166.295 43.4957 -173.8
RightUpLeg  -15.2537 -20.8705 1.23959
RightLeg  10.6661 -1.75915 -0.214375
RightFoot  12.1406 0.075757 -0.169288
RightToes  -27.0283 -0.124002 -0.230791
Spine  -1.79809 0.28626 -4.68181
Spine1  -3.58374 0.524944 -8.27515
HEad  -78.3722 -48.1512 19.6849
LeftShoulder1  -1.94126e-019 -3.10601e-018 -2.51263e-017
LeftArm  -23.7205 27.0435 -61.0963
LeftForeArm  30.6496 -9.10997 -1.596
LeftHand  -0.401816 0.983138 10.5655
RightShoulder  -4.96962e-017 0 -2.36833e-017
RightArm  -48.441 -14.7471 58.4487
RightForeArm  37.9167 54.2304 12.5004
RightHand  -0.232922 -2.71005 -9.67918
LeftUpLeg  -7.13933 13.6266 2.19385
LeftLeg  12.5612 23.9155 3.6222
LeftFoot  -2.05358 -0.0154242 -0.699008
LeftToes  -9.91092 1.46665e-006 1.03344e-007
170
root  -53.9141 34.8806 -28.2856 -166.617 43.0044 -174.098
RightUpLeg  -14.2975 -21.1365 1.37718
RightLeg  9.83441 -2.2954 -0.246108
RightFoot  11.5822 0.0811017 -0.254023
RightToes  -25.7455 -0.115748 -0.221336
Spine  -1.79707 0.205609 -4.56832
Spine1  -3.57662 0.365074 -8.03191
HEad  -77.6383 -48.3608 19.3085
LeftShoulder1  -1.94126e-019 -3.10601e-018 -2.51263e-017
LeftArm  -23.2212 26.5947 -59.2356
LeftForeArm  31.5823 -9.03265 -1.5812
LeftHand  -0.412468 0.97148 10.8203
RightShoulder  -4.96962e-017 0 -2.36833e-017
RightArm  -48.1305 -14.6946 56.9716
RightForeArm  39.9187 56.4148 13.5284
RightHand  -0.243507 -2.63129 -9.8655
LeftUpLeg  -6.72267 13.2283 2.55443
LeftLeg  12.4546 23.8034 3.5624
LeftFoot  -1.62399 -0.00936975 -0.499531
LeftToes  -10.8146 1.46665e-006 1.03344e-007
171
root  -53.5858 34.8794 -28.2503 -166.885 42.2957 -174.544
RightUpLeg  -13.7799 -21.2016 1.36632
RightLeg  9.73229 -2.76507 -0.291618
RightFoot  10.6276 0.0788164 -0.29976
RightToes  -25.3249 -0.113088 -0.218196
Spine  -1.85009 0.0651347 -4.46776
Spine1  -3.67073 0.0694319 -7.8131
HEad  -76.7136 -48.5796 18.5093
LeftShoulder1  -1.94126e-019 -3.10601e-018 -2.51263e-017
LeftArm  -22.938 25.8024 -57.7523
LeftForeArm  32.1985 -8.71585 -1.52457
LeftHand  -0.405138 1.1452 11.0447
RightShoulder  -4.96962e-017 0 -2.36833e-017
RightArm  -48.0465 -14.908 56.1407
RightForeArm  42.786 58.3706 14.4694
RightHand  -0.281284 -2.06906 -9.59436
LeftUpLeg  -6.47456 12.5585 2.82439
LeftLeg  12.2508 23.7407 3.46996
LeftFoot  -1.09405 -0.00403453 -0.261013
LeftToes  -11.7251 1.46665e-006 1.03344e-007
172
root  -53.2118 34.8797 -28.1887 -167.121 41.4741 -174.833
RightUpLeg  -13.1975 -21.1825 1.4815
RightLeg  9.74396 -3.35881 -0.355042
RightFoot  9.70758 0.0769049 -0.355325
RightToes  -25.1505 -0.111992 -0.216888
Spine  -1.87277 -0.0602982 -4.27517
Spine1  -3.70975 -0.195699 -7.42681
HEad  -76.2314 -48.8113 17.8718
LeftShoulder1  -1.94126e-019 -3.10601e-018 -2.51263e-017
LeftArm  -23.2577 24.677 -56.8813
LeftForeArm  32.7128 -8.26659 -1.44423
LeftHand  -0.400647 1.24484 11.2457
RightShoulder  -4.96962e-017 0 -2.36833e-017
RightArm  -47.7786 -15.4755 55.6011
RightForeArm  45.4492 60.0373 15.3454
RightHand  -0.304186 -1.6486 -9.27942
LeftUpLeg  -6.11919 12.0459 3.33595
LeftLeg  11.9449 23.4558 3.3068
LeftFoot  -0.509035 -0.000725195 -0.0017442
LeftToes  -12.9016 1.46665e-006 1.03344e-007
173
root  -52.8259 34.8845 -28.1053 -167.336 40.7876 -175.105
RightUpLeg  -12.6686 -20.803 1.71373
RightLeg  9.72845 -4.41793 -0.465817
RightFoot  8.71782 0.0773007 -0.458693
RightToes  -24.3602 -0.107075 -0.210921
Spine  -1.89707 -0.157893 -4.07966
Spine1  -3.75492 -0.409026 -7.05141
HEad  -76.0965 -48.8055 17.5353
LeftShoulder1  -1.94126e-019 -3.10601e-018 -2.51263e-017
LeftArm  -24.1571 23.6068 -56.5105
LeftForeArm  33.133 -8.13073 -1.42
LeftHand  -0.397988 1.36253 11.4031
RightShoulder  -4.96962e-017 0 -2.36833e-017
RightArm  -47.7321 -16.0234 55.596
RightForeArm  47.152 61.0645 15.9296
RightHand  -0.32893 -1.17551 -8.97399
LeftUpLeg  -5.68795 11.7129 3.87396
LeftLeg  11.4353 23.1406 3.06134
LeftFoot  0.226136 -0.00029527 0.31139
LeftToes  -14.2248 1.46665e-006 1.03344e-007
174
root  -52.43 34.8878 -27.9875 -167.499 40.1444 -175.321
RightUpLeg  -12.0578 -19.7861 2.06618
RightLeg  9.43149 -6.18265 -0.619097
RightFoot  7.74677 0.0802507 -0.62104
RightToes  -23.0472 -0.0990888 -0.200859
Spine  -1.89425 -0.306821 -3.8559
Spine1  -3.74449 -0.72191 -6.63009
HEad  -76.4157 -48.5391 17.5672
LeftShoulder1  -1.94126e-019 -3.10601e-018 -2.51263e-017
LeftArm  -25.3786 22.7352 -56.6751
LeftForeArm  33.2438 -8.39981 -1.46793
LeftHand  -0.396254 1.39814 11.4598
RightShoulder  -4.96962e-017 0 -2.36833e-017
RightArm  -47.6571 -16.2342 55.8707
RightForeArm  48.4142 61.4369 16.0845
RightHand  -0.337888 -0.770081 -8.4541
LeftUpLeg  -5.28252 11.2061 4.4671
LeftLeg  10.8777 23.0409 2.82756
LeftFoot  0.949455 -0.00372845 0.611609
LeftToes  -15.1952 1.46665e-006 1.03344e-007
175
root  -52.0424 34.8915 -27.8492 -167.679 39.6068 -175.608
RightUpLeg  -11.4271 -19.2166 2.40922
RightLeg  8.90038 -7.32457 -0.664525
RightFoot  6.93781 0.0754328 -0.674722
RightToes  -22.0795 -0.0933516 -0.193328
Spine  -1.89476 -0.444522 -3.66345
Spine1  -3.74333 -1.00842 -6.28418
HEad  -76.8545 -47.9974 17.8203
LeftShoulder1  -1.94126e-019 -3.10601e-018 -2.51263e-017
LeftArm  -25.7628 22.1085 -57.2665
LeftForeArm  32.5736 -9.1406 -1.60093
LeftHand  -0.388773 1.49017 11.497
RightShoulder  -4.96962e-017 0 -2.36833e-017
RightArm  -47.6318 -16.3642 56.4078
RightForeArm  49.5784 61.332 15.881
RightHand  -0.333672 -0.439842 -7.8237
LeftUpLeg  -4.93678 10.7166 4.97845
LeftLeg  10.3293 23.0314 2.6093
LeftFoot  1.81347 -0.0127963 0.970114
LeftToes  -16.5577 1.46665e-006 1.03344e-007
